<?xml version="1.0" standalone="no"?>
<!DOCTYPE svg PUBLIC "-//W3C//DTD SVG 20010904//EN"
 "http://www.w3.org/TR/2001/REC-SVG-20010904/DTD/svg10.dtd">
<svg version="1.0" xmlns="http://www.w3.org/2000/svg"
 width="24.000000pt" height="24.000000pt" viewBox="0 0 24.000000 24.000000"
 preserveAspectRatio="xMidYMid meet">

<g transform="translate(0.000000,24.000000) scale(0.100000,-0.100000)"
fill="#000000" stroke="none">
<path d="M92 188 c-7 -7 -12 -19 -12 -27 1 -13 3 -13 14 2 10 13 25 17 53 15
l38 -3 3 -57 3 -58 -42 0 c-28 0 -46 6 -56 17 -12 17 -13 16 -11 -7 3 -22 8
-25 51 -28 65 -4 77 8 77 79 0 47 -4 60 -19 69 -27 14 -84 13 -99 -2z"/>
<path d="M45 136 c-18 -13 -18 -16 -5 -30 11 -11 25 -13 49 -8 45 10 53 32 13
32 -17 0 -32 5 -34 10 -2 7 -11 5 -23 -4z"/>
</g>
</svg>
